# xmcd
#
# Track frame offsets:
#	183
#	17215
#	31065
#	54770
#	68570
#	81780
#	106078
#	125668
#	143250
#
# Disc length: 2151 seconds
#
# Revision: 0
# Processed by: cddbd v1.4PL0 Copyright (c) Steve Scherf et al.
# Submitted via: audiograbber 1.81.01
#
DISCID=62086509
DTITLE=Elkie Brooks - Rich Man's Woman
DYEAR=1975
DGENRE=Country
TTITLE0=Where Do We Go From Here
TTITLE1=Take Cover
TTITLE2=Jigsaw Baby
TTITLE3=Roll Me Over
TTITLE4=He's A Rebel
TTITLE5=One Step On The Ladder
TTITLE6=Rock And Roll Circus
TTITLE7=Try A Little Love
TTITLE8=Tomorrow
EXTD=
EXTT0=
EXTT1=
EXTT2=
EXTT3=
EXTT4=
EXTT5=
EXTT6=
EXTT7=
EXTT8=
PLAYORDER=
